Darine-Bold.ufo
<glyph name="hamza-ar" format="1">
  <advance width="600"/>
  <unicode hex="0621"/>
  <outline>
    <contour>
      <point x="226" y="494" type="line"/>
      <point x="187" y="530"/>
      <point x="169" y="572"/>
      <point x="169" y="628" type="curve" smooth="yes"/>
      <point x="169" y="727"/>
      <point x="315" y="783"/>
      <point x="368" y="706" type="curve"/>
      <point x="442" y="756" type="line"/>
      <point x="340" y="907"/>
      <point x="79" y="816"/>
      <point x="79" y="628" type="curve" smooth="yes"/>
      <point x="79" y="549"/>
      <point x="108" y="481"/>
      <point x="164" y="428" type="curve"/>
    </contour>
    <contour>
      <point x="429" y="548" type="line"/>
      <point x="338" y="500"/>
      <point x="220" y="488"/>
      <point x="56" y="511" type="curve"/>
      <point x="44" y="421" type="line"/>
      <point x="224" y="396"/>
      <point x="363" y="411"/>
      <point x="471" y="468" type="curve"/>
    </contour>
    <contour>
      <point x="262" y="377" type="move" name="_top"/>
    </contour>
    <contour>
      <point x="226" y="873" type="move" name="top"/>
    </contour>
  </outline>
</glyph>
<glyph name="alef-ar" format="1">
  <advance width="186"/>
  <unicode hex="0627"/>
  <outline>
    <contour>
      <point x="146" y="-18" type="line"/>
      <point x="147" y="483"/>
      <point x="146" y="521"/>
      <point x="130" y="1018" type="curve"/>
      <point x="40" y="1016" type="line"/>
      <point x="56" y="519"/>
      <point x="57" y="481"/>
      <point x="56" y="-18" type="curve"/>
    </contour>
    <contour>
      <point x="103" y="-291" type="move" name="_top"/>
    </contour>
    <contour>
      <point x="67" y="1128" type="move" name="top"/>
    </contour>
  </outline>
</glyph>
<glyph name="hah-ar" format="1">
  <advance width="745"/>
  <unicode hex="062D"/>
  <outline>
    <contour>
      <point x="94" y="277" type="line"/>
      <point x="171" y="388"/>
      <point x="267" y="464"/>
      <point x="324" y="464" type="curve" smooth="yes"/>
      <point x="443" y="464"/>
      <point x="472" y="373"/>
      <point x="509" y="251" type="curve" smooth="yes"/>
      <point x="540" y="150"/>
      <point x="579" y="26"/>
      <point x="699" y="-10" type="curve"/>
      <point x="725" y="76" type="line"/>
      <point x="566" y="125"/>
      <point x="645" y="554"/>
      <point x="324" y="554" type="curve" smooth="yes"/>
      <point x="232" y="554"/>
      <point x="115" y="466"/>
      <point x="20" y="329" type="curve"/>
    </contour>
    <contour>
      <point x="499" y="-481" type="line"/>
      <point x="277" y="-487"/>
      <point x="133" y="-389"/>
      <point x="133" y="-235" type="curve" smooth="yes"/>
      <point x="133" y="-96"/>
      <point x="290" y="0"/>
      <point x="533" y="0" type="curve" smooth="yes"/>
      <point x="595" y="0"/>
      <point x="662" y="-4"/>
      <point x="699" y="-10" type="curve"/>
      <point x="713" y="80" type="line"/>
      <point x="670" y="86"/>
      <point x="599" y="90"/>
      <point x="533" y="90" type="curve" smooth="yes"/>
      <point x="242" y="90"/>
      <point x="43" y="-39"/>
      <point x="43" y="-235" type="curve" smooth="yes"/>
      <point x="43" y="-443"/>
      <point x="229" y="-579"/>
      <point x="501" y="-571" type="curve"/>
    </contour>
    <contour>
      <point x="379" y="-233" type="move" name="_top"/>
    </contour>
    <contour>
      <point x="208" y="772" type="move" name="top"/>
    </contour>
  </outline>
</glyph>
<glyph name="dal-ar" format="1">
  <advance width="639"/>
  <unicode hex="062F"/>
  <outline>
    <contour>
      <point x="80" y="505" type="line"/>
      <point x="341" y="505"/>
      <point x="509" y="402"/>
      <point x="509" y="247" type="curve" smooth="yes"/>
      <point x="509" y="71"/>
      <point x="224" y="95"/>
      <point x="40" y="95" type="curve"/>
      <point x="40" y="5" type="line"/>
      <point x="220" y="5"/>
      <point x="599" y="-27"/>
      <point x="599" y="247" type="curve" smooth="yes"/>
      <point x="599" y="458"/>
      <point x="391" y="595"/>
      <point x="80" y="595" type="curve"/>
    </contour>
    <contour>
      <point x="5" y="785" type="move" name="top"/>
    </contour>
  </outline>
</glyph>
<glyph name="reh-ar" format="1">
  <advance width="367"/>
  <unicode hex="0631"/>
  <outline>
    <contour>
      <point x="253" y="581" type="line"/>
      <point x="291" y="149"/>
      <point x="313" y="-258"/>
      <point x="-40" y="-509" type="curve"/>
      <point x="12" y="-583" type="line"/>
      <point x="405" y="-302"/>
      <point x="381" y="155"/>
      <point x="343" y="589" type="curve"/>
    </contour>
    <contour>
      <point x="348" y="0" type="move" name="#entry"/>
    </contour>
    <contour>
      <point x="280" y="678" type="move" name="top"/>
    </contour>
  </outline>
</glyph>
<glyph name="seen-ar" format="1">
  <advance width="1543"/>
  <unicode hex="0633"/>
  <outline>
    <contour>
      <point x="57" y="120" type="line"/>
      <point x="46" y="82"/>
      <point x="40" y="41"/>
      <point x="40" y="-3" type="curve" smooth="yes"/>
      <point x="40" y="-635"/>
      <point x="801" y="-698"/>
      <point x="801" y="-101" type="curve" smooth="yes"/>
      <point x="801" y="186"/>
      <point x="595" y="494"/>
      <point x="561" y="538" type="curve"/>
      <point x="490" y="482" type="line"/>
      <point x="522" y="441"/>
      <point x="712" y="158"/>
      <point x="711" y="-101" type="curve" smooth="yes"/>
      <point x="709" y="-573"/>
      <point x="130" y="-522"/>
      <point x="130" y="-3" type="curve" smooth="yes"/>
      <point x="130" y="34"/>
      <point x="134" y="65"/>
      <point x="143" y="95" type="curve"/>
    </contour>
    <contour>
      <point x="917" y="504" type="line"/>
      <point x="942" y="462"/>
      <point x="1012" y="316"/>
      <point x="1012" y="202" type="curve" smooth="yes"/>
      <point x="1012" y="105"/>
      <point x="960" y="56"/>
      <point x="857" y="59" type="curve" smooth="yes"/>
      <point x="808" y="59"/>
      <point x="780" y="62"/>
      <point x="772" y="67" type="curve"/>
      <point x="727" y="-10" type="line"/>
      <point x="753" y="-26"/>
      <point x="797" y="-31"/>
      <point x="855" y="-31" type="curve" smooth="yes"/>
      <point x="1008" y="-35"/>
      <point x="1102" y="54"/>
      <point x="1102" y="202" type="curve" smooth="yes"/>
      <point x="1102" y="336"/>
      <point x="1021" y="504"/>
      <point x="995" y="549" type="curve"/>
    </contour>
    <contour>
      <point x="1359" y="532" type="line"/>
      <point x="1370" y="482"/>
      <point x="1413" y="306"/>
      <point x="1413" y="168" type="curve" smooth="yes"/>
      <point x="1413" y="37"/>
      <point x="1377" y="-29"/>
      <point x="1315" y="-29" type="curve" smooth="yes"/>
      <point x="1249" y="-29"/>
      <point x="1149" y="44"/>
      <point x="1076" y="149" type="curve"/>
      <point x="1002" y="98" type="line"/>
      <point x="1093" y="-32"/>
      <point x="1217" y="-119"/>
      <point x="1315" y="-119" type="curve" smooth="yes"/>
      <point x="1435" y="-119"/>
      <point x="1503" y="-12"/>
      <point x="1503" y="168" type="curve" smooth="yes"/>
      <point x="1503" y="317"/>
      <point x="1458" y="502"/>
      <point x="1447" y="551" type="curve"/>
    </contour>
    <contour>
      <point x="1483" y="3" type="move" name="#entry"/>
    </contour>
    <contour>
      <point x="835" y="700" type="move" name="top"/>
    </contour>
  </outline>
</glyph>
<glyph name="sad-ar" format="1">
  <advance width="1908"/>
  <unicode hex="0635"/>
  <outline>
    <contour>
      <point x="721" y="532" type="line"/>
      <point x="804" y="195"/>
      <point x="834" y="56"/>
      <point x="834" y="14" type="curve" smooth="yes"/>
      <point x="834" y="-538"/>
      <point x="130" y="-589"/>
      <point x="130" y="-28" type="curve" smooth="yes"/>
      <point x="130" y="1"/>
      <point x="131" y="34"/>
      <point x="135" y="76" type="curve"/>
      <point x="45" y="84" type="line"/>
      <point x="42" y="40"/>
      <point x="40" y="4"/>
      <point x="40" y="-28" type="curve" smooth="yes"/>
      <point x="40" y="-713"/>
      <point x="924" y="-652"/>
      <point x="924" y="14" type="curve" smooth="yes"/>
      <point x="924" y="66"/>
      <point x="894" y="205"/>
      <point x="809" y="554" type="curve"/>
    </contour>
    <component base="sad-01"/>
    <contour>
      <point x="1279" y="0" type="move" name="#entry"/>
    </contour>
    <contour>
      <point x="952" y="862" type="move" name="top"/>
    </contour>
  </outline>
</glyph>
<glyph name="tah-ar" format="1">
  <advance width="1126"/>
  <unicode hex="0637"/>
  <outline>
    <component base="tah-ar.init"/>
    <contour>
      <point x="447" y="871" type="move" name="top"/>
    </contour>
  </outline>
</glyph>
<glyph name="ain-ar" format="1">
  <advance width="512"/>
  <unicode hex="0639"/>
  <outline>
    <contour>
      <point x="490" y="-493" type="line"/>
      <point x="0" y="-506"/>
      <point x="27" y="45"/>
      <point x="459" y="0" type="curve"/>
      <point x="469" y="90" type="line"/>
      <point x="-89" y="147"/>
      <point x="-126" y="-600"/>
      <point x="492" y="-583" type="curve"/>
    </contour>
    <contour>
      <point x="229" y="5" type="line"/>
      <point x="-101" y="199"/>
      <point x="110" y="629"/>
      <point x="469" y="494" type="curve"/>
      <point x="502" y="579" type="line"/>
      <point x="38" y="750"/>
      <point x="-242" y="176"/>
      <point x="183" y="-72" type="curve"/>
    </contour>
    <contour>
      <point x="76" y="791" type="move" name="top"/>
    </contour>
  </outline>
</glyph>
<glyph name="kaf-ar" format="1">
  <advance width="1155"/>
  <unicode hex="0643"/>
  <outline>
    <contour>
      <point x="1015" y="1045" type="line"/>
      <point x="1015" y="413"/>
      <point x="1113" y="90"/>
      <point x="571" y="90" type="curve" smooth="yes"/>
      <point x="256" y="90"/>
      <point x="109" y="261"/>
      <point x="133" y="603" type="curve"/>
      <point x="43" y="609" type="line"/>
      <point x="15" y="216"/>
      <point x="202" y="0"/>
      <point x="571" y="0" type="curve" smooth="yes"/>
      <point x="1235" y="0"/>
      <point x="1105" y="427"/>
      <point x="1105" y="1045" type="curve"/>
    </contour>
    <component base="hamza-ar" xOffset="281" yOffset="16"/>
  </outline>
</glyph>
<glyph name="lam-ar" format="1">
  <advance width="1099"/>
  <unicode hex="0644"/>
  <outline>
    <contour>
      <point x="996" y="999" type="line"/>
      <point x="1001" y="660"/>
      <point x="1004" y="460"/>
      <point x="1004" y="268" type="curve" smooth="yes"/>
      <point x="1004" y="-282"/>
      <point x="1020" y="-447"/>
      <point x="571" y="-447" type="curve" smooth="yes"/>
      <point x="256" y="-447"/>
      <point x="106" y="-272"/>
      <point x="133" y="65" type="curve"/>
      <point x="43" y="73" type="line"/>
      <point x="12" y="-317"/>
      <point x="203" y="-537"/>
      <point x="571" y="-537" type="curve" smooth="yes"/>
      <point x="1120" y="-537"/>
      <point x="1094" y="-278"/>
      <point x="1094" y="268" type="curve" smooth="yes"/>
      <point x="1094" y="460"/>
      <point x="1091" y="662"/>
      <point x="1086" y="1001" type="curve"/>
    </contour>
    <contour>
      <point x="1092" y="-1" type="move" name="#entry"/>
    </contour>
    <contour>
      <point x="343" y="500" type="move" name="top"/>
    </contour>
  </outline>
</glyph>
<glyph name="meem-ar" format="1">
  <advance width="854"/>
  <unicode hex="0645"/>
  <outline>
    <contour>
      <point x="135" y="-571" type="line"/>
      <point x="136" y="-528"/>
      <point x="135" y="-421"/>
      <point x="134" y="-295" type="curve" smooth="yes"/>
      <point x="133" y="-170"/>
      <point x="132" y="-27"/>
      <point x="131" y="93" type="curve"/>
      <point x="131" y="144"/>
      <point x="130" y="191"/>
      <point x="130" y="230" type="curve"/>
      <point x="129" y="367"/>
      <point x="297" y="489"/>
      <point x="523" y="515" type="curve"/>
      <point x="513" y="605" type="line"/>
      <point x="240" y="573"/>
      <point x="39" y="417"/>
      <point x="40" y="230" type="curve" smooth="yes"/>
      <point x="41" y="99"/>
      <point x="43" y="-117"/>
      <point x="44" y="-295" type="curve" smooth="yes"/>
      <point x="45" y="-421"/>
      <point x="46" y="-528"/>
      <point x="45" y="-569" type="curve"/>
    </contour>
    <contour>
      <point x="525" y="0" type="curve" smooth="yes"/>
      <point x="685" y="0"/>
      <point x="814" y="135"/>
      <point x="814" y="302" type="curve" smooth="yes"/>
      <point x="814" y="470"/>
      <point x="685" y="605"/>
      <point x="525" y="605" type="curve" smooth="yes"/>
      <point x="365" y="605"/>
      <point x="236" y="469"/>
      <point x="236" y="302" type="curve" smooth="yes"/>
      <point x="236" y="135"/>
      <point x="365" y="0"/>
    </contour>
    <contour>
      <point x="525" y="90" type="curve" smooth="yes"/>
      <point x="415" y="90"/>
      <point x="326" y="185"/>
      <point x="326" y="302" type="curve" smooth="yes"/>
      <point x="326" y="420"/>
      <point x="415" y="515"/>
      <point x="525" y="515" type="curve" smooth="yes"/>
      <point x="636" y="515"/>
      <point x="724" y="421"/>
      <point x="724" y="302" type="curve" smooth="yes"/>
      <point x="724" y="185"/>
      <point x="635" y="90"/>
    </contour>
    <contour>
      <point x="525" y="0" type="move" name="#entry"/>
    </contour>
  </outline>
</glyph>
<glyph name="heh-ar" format="1">
  <advance width="605"/>
  <unicode hex="0647"/>
  <outline>
    <contour>
      <point x="270" y="0" type="curve" smooth="yes"/>
      <point x="721" y="0"/>
      <point x="655" y="622"/>
      <point x="328" y="622" type="curve" smooth="yes"/>
      <point x="-45" y="622"/>
      <point x="-131" y="0"/>
    </contour>
    <contour>
      <point x="270" y="90" type="curve" smooth="yes"/>
      <point x="-1" y="90"/>
      <point x="63" y="532"/>
      <point x="328" y="532" type="curve" smooth="yes"/>
      <point x="545" y="532"/>
      <point x="593" y="90"/>
    </contour>
    <contour>
      <point x="305" y="808" type="move" name="top"/>
    </contour>
  </outline>
</glyph>
<glyph name="waw-ar" format="1">
  <advance width="718"/>
  <unicode hex="0648"/>
  <outline>
    <contour>
      <point x="615" y="90" type="line"/>
      <point x="273" y="63"/>
      <point x="130" y="129"/>
      <point x="130" y="302" type="curve" smooth="yes"/>
      <point x="130" y="687"/>
      <point x="588" y="633"/>
      <point x="588" y="202" type="curve" smooth="yes"/>
      <point x="588" y="-103"/>
      <point x="479" y="-292"/>
      <point x="232" y="-419" type="curve"/>
      <point x="274" y="-499" type="line"/>
      <point x="551" y="-356"/>
      <point x="678" y="-135"/>
      <point x="678" y="202" type="curve" smooth="yes"/>
      <point x="678" y="743"/>
      <point x="40" y="816"/>
      <point x="40" y="302" type="curve" smooth="yes"/>
      <point x="40" y="65"/>
      <point x="230" y="-31"/>
      <point x="623" y="0" type="curve"/>
    </contour>
    <contour>
      <point x="659" y="0" type="move" name="#entry"/>
    </contour>
    <contour>
      <point x="273" y="931" type="move" name="top"/>
    </contour>
  </outline>
</glyph>
<glyph name="alefMaksura-ar" format="1">
  <advance width="1160"/>
  <unicode hex="0649"/>
  <outline>
    <contour>
      <point x="51" y="91" type="line"/>
      <point x="-3" y="-330"/>
      <point x="134" y="-472"/>
      <point x="587" y="-472" type="curve" smooth="yes"/>
      <point x="940" y="-472"/>
      <point x="1120" y="-370"/>
      <point x="1120" y="-158" type="curve" smooth="yes"/>
      <point x="1120" y="93"/>
      <point x="878" y="96"/>
      <point x="696" y="97" type="curve" smooth="yes"/>
      <point x="493" y="98"/>
      <point x="442" y="116"/>
      <point x="442" y="184" type="curve" smooth="yes"/>
      <point x="442" y="398"/>
      <point x="679" y="583"/>
      <point x="882" y="530" type="curve"/>
      <point x="904" y="618" type="line"/>
      <point x="645" y="685"/>
      <point x="352" y="456"/>
      <point x="352" y="184" type="curve" smooth="yes"/>
      <point x="352" y="-173"/>
      <point x="1030" y="162"/>
      <point x="1030" y="-158" type="curve" smooth="yes"/>
      <point x="1030" y="-309"/>
      <point x="893" y="-382"/>
      <point x="587" y="-382" type="curve" smooth="yes"/>
      <point x="187" y="-382"/>
      <point x="93" y="-283"/>
      <point x="141" y="79" type="curve"/>
    </contour>
    <contour>
      <point x="141" y="456" type="move" name="top"/>
    </contour>
  </outline>
</glyph>
<glyph name="fathatan-ar" format="1">
  <advance width="600"/>
  <unicode hex="064B"/>
  <outline>
    <component base="fatha-ar" xOffset="-93" yOffset="330"/>
    <component base="fatha-ar" xOffset="-89" yOffset="531"/>
    <contour>
      <point x="295" y="1089" type="move" name="_top"/>
    </contour>
    <contour>
      <point x="295" y="1491" type="move" name="top"/>
    </contour>
  </outline>
</glyph>
<glyph name="dammatan-ar" format="1">
  <advance width="501"/>
  <unicode hex="064C"/>
  <outline>
    <contour>
      <point x="356" y="793" type="curve" smooth="yes"/>
      <point x="237" y="793"/>
      <point x="240" y="937"/>
      <point x="355" y="936" type="curve" smooth="yes"/>
      <point x="449" y="935"/>
      <point x="452" y="793"/>
    </contour>
    <contour>
      <point x="356" y="703" type="curve" smooth="yes"/>
      <point x="570" y="703"/>
      <point x="568" y="1023"/>
      <point x="357" y="1026" type="curve" smooth="yes"/>
      <point x="122" y="1029"/>
      <point x="117" y="703"/>
    </contour>
    <contour>
      <point x="418" y="826" type="line"/>
      <point x="336" y="694"/>
      <point x="259" y="670"/>
      <point x="122" y="733" type="curve"/>
      <point x="84" y="651" type="line"/>
      <point x="263" y="569"/>
      <point x="388" y="608"/>
      <point x="494" y="778" type="curve"/>
    </contour>
    <contour>
      <point x="132" y="569" type="line"/>
      <point x="210" y="733"/>
      <point x="180" y="842"/>
      <point x="25" y="944" type="curve"/>
      <point x="-25" y="870" type="line"/>
      <point x="92" y="792"/>
      <point x="110" y="731"/>
      <point x="50" y="607" type="curve"/>
    </contour>
    <contour>
      <point x="250" y="540" type="move" name="_top"/>
    </contour>
    <contour>
      <point x="250" y="1057" type="move" name="top"/>
    </contour>
  </outline>
</glyph>
<glyph name="kasratan-ar" format="1">
  <advance width="600"/>
  <unicode hex="064D"/>
  <outline>
    <component base="fatha-ar" xOffset="-52" yOffset="-1294"/>
    <component base="fatha-ar" xOffset="-48" yOffset="-1093"/>
    <contour>
      <point x="336" y="-113" type="move" name="_bottom"/>
    </contour>
    <contour>
      <point x="336" y="-515" type="move" name="bottom"/>
    </contour>
  </outline>
</glyph>
<glyph name="fatha-ar" format="1">
  <advance width="600"/>
  <unicode hex="064E"/>
  <outline>
    <contour>
      <point x="198" y="868" type="curve" smooth="yes"/>
      <point x="125" y="850"/>
      <point x="147" y="768"/>
      <point x="216" y="780" type="curve" smooth="yes"/>
      <point x="319" y="801"/>
      <point x="476" y="841"/>
      <point x="577" y="872" type="curve" smooth="yes"/>
      <point x="649" y="894"/>
      <point x="619" y="974"/>
      <point x="551" y="958" type="curve"/>
      <point x="452" y="928"/>
      <point x="298" y="889"/>
    </contour>
    <contour>
      <point x="396" y="771" type="move" name="_top"/>
    </contour>
    <contour>
      <point x="400" y="972" type="move" name="top"/>
    </contour>
  </outline>
</glyph>
<glyph name="damma-ar" format="1">
  <advance width="600"/>
  <unicode hex="064F"/>
  <outline>
    <contour>
      <point x="310" y="1099" type="curve" smooth="yes"/>
      <point x="562" y="1099"/>
      <point x="562" y="1479"/>
      <point x="310" y="1482" type="curve" smooth="yes"/>
      <point x="36" y="1485"/>
      <point x="32" y="1099"/>
    </contour>
    <contour>
      <point x="310" y="1189" type="curve" smooth="yes"/>
      <point x="150" y="1189"/>
      <point x="154" y="1393"/>
      <point x="310" y="1392" type="curve" smooth="yes"/>
      <point x="444" y="1391"/>
      <point x="444" y="1189"/>
    </contour>
    <contour>
      <point x="485" y="1215" type="curve"/>
      <point x="373" y="1190" type="line"/>
      <point x="320" y="1102"/>
      <point x="242" y="1054"/>
      <point x="129" y="1038" type="curve"/>
      <point x="142" y="949" type="line"/>
      <point x="309" y="973"/>
      <point x="423" y="1060"/>
    </contour>
    <contour>
      <point x="293" y="938" type="move" name="_top"/>
    </contour>
    <contour>
      <point x="314" y="1514" type="move" name="top"/>
    </contour>
  </outline>
</glyph>
<glyph name="shadda-ar" format="1">
  <advance width="600"/>
  <unicode hex="0651"/>
  <outline>
    <contour>
      <point x="255" y="845" type="line"/>
      <point x="258" y="792"/>
      <point x="228" y="758"/>
      <point x="189" y="762" type="curve" smooth="yes"/>
      <point x="156" y="765"/>
      <point x="138" y="803"/>
      <point x="148" y="862" type="curve"/>
      <point x="59" y="877" type="line"/>
      <point x="41" y="767"/>
      <point x="91" y="682"/>
      <point x="180" y="673" type="curve" smooth="yes"/>
      <point x="274" y="663"/>
      <point x="349" y="741"/>
      <point x="346" y="847" type="curve"/>
    </contour>
    <contour>
      <point x="346" y="847" type="curve"/>
      <point x="262" y="798" type="line"/>
      <point x="282" y="720"/>
      <point x="345" y="659"/>
      <point x="414" y="659" type="curve" smooth="yes"/>
      <point x="508" y="659"/>
      <point x="582" y="748"/>
      <point x="582" y="860" type="curve"/>
      <point x="492" y="860" type="line"/>
      <point x="492" y="797"/>
      <point x="456" y="749"/>
      <point x="414" y="749" type="curve" smooth="yes"/>
      <point x="383" y="749"/>
      <point x="346" y="798"/>
    </contour>
    <contour>
      <point x="331" y="574" type="move" name="_top"/>
    </contour>
    <contour>
      <point x="312" y="968" type="move" name="top"/>
    </contour>
  </outline>
</glyph>
<glyph name="sukun-ar" format="1">
  <advance width="600"/>
  <unicode hex="0652"/>
  <outline>
    <contour>
      <point x="213" y="823" type="curve" smooth="yes"/>
      <point x="213" y="583"/>
      <point x="557" y="583"/>
      <point x="557" y="823" type="curve" smooth="yes"/>
      <point x="557" y="1062"/>
      <point x="213" y="1062"/>
    </contour>
    <contour>
      <point x="303" y="823" type="curve" smooth="yes"/>
      <point x="303" y="944"/>
      <point x="467" y="944"/>
      <point x="467" y="823" type="curve" smooth="yes"/>
      <point x="467" y="701"/>
      <point x="303" y="701"/>
    </contour>
    <contour>
      <point x="385" y="612" type="move" name="_top"/>
    </contour>
    <contour>
      <point x="385" y="1024" type="move" name="top"/>
    </contour>
  </outline>
</glyph>
<glyph name="madda-ar" format="1">
  <advance width="600"/>
  <unicode hex="0653"/>
  <outline>
    <contour>
      <point x="41" y="883" type="curve" smooth="yes"/>
      <point x="-31" y="861"/>
      <point x="3" y="779"/>
      <point x="71" y="797" type="curve"/>
      <point x="102" y="808"/>
      <point x="238" y="838"/>
      <point x="255" y="838" type="curve" smooth="yes"/>
      <point x="263" y="838"/>
      <point x="267" y="836"/>
      <point x="285" y="824" type="curve" smooth="yes"/>
      <point x="307" y="810"/>
      <point x="344" y="786"/>
      <point x="407" y="786" type="curve" smooth="yes"/>
      <point x="427" y="786"/>
      <point x="491" y="802"/>
      <point x="532" y="812" type="curve" smooth="yes"/>
      <point x="547" y="816"/>
      <point x="559" y="819"/>
      <point x="565" y="820" type="curve" smooth="yes"/>
      <point x="637" y="842"/>
      <point x="613" y="924"/>
      <point x="545" y="908" type="curve" smooth="yes"/>
      <point x="521" y="903"/>
      <point x="420" y="876"/>
      <point x="407" y="876" type="curve" smooth="yes"/>
      <point x="333" y="876"/>
      <point x="327" y="928"/>
      <point x="255" y="928" type="curve" smooth="yes"/>
      <point x="229" y="928"/>
      <point x="84" y="897"/>
    </contour>
    <contour>
      <point x="307" y="745" type="move" name="_top"/>
    </contour>
    <contour>
      <point x="307" y="978" type="move" name="top"/>
    </contour>
  </outline>
</glyph>
<glyph name="alefbelow-ar" format="1">
  <advance width="600"/>
  <unicode hex="0656"/>
  <outline>
    <component base="alefabove-ar" xOffset="-63" yOffset="-1093"/>
    <contour>
      <point x="327" y="-98" type="move" name="_bottom"/>
    </contour>
    <contour>
      <point x="327" y="-338" type="move" name="bottom"/>
    </contour>
  </outline>
</glyph>
<glyph name="behDotless-ar" format="1">
  <advance width="1283"/>
  <unicode hex="066E"/>
  <outline>
    <contour>
      <point x="1173" y="515" type="line"/>
      <point x="1173" y="109"/>
      <point x="1152" y="90"/>
      <point x="697" y="90" type="curve" smooth="yes"/>
      <point x="639" y="90"/>
      <point x="581" y="90"/>
      <point x="519" y="90" type="curve" smooth="yes"/>
      <point x="150" y="90"/>
      <point x="110" y="132"/>
      <point x="110" y="515" type="curve"/>
      <point x="20" y="515" type="line"/>
      <point x="20" y="83"/>
      <point x="94" y="0"/>
      <point x="519" y="0" type="curve" smooth="yes"/>
      <point x="581" y="0"/>
      <point x="640" y="0"/>
      <point x="697" y="0" type="curve" smooth="yes"/>
      <point x="1155" y="0"/>
      <point x="1263" y="18"/>
      <point x="1263" y="515" type="curve"/>
    </contour>
    <contour>
      <point x="1283" y="0" type="move" name="#entry"/>
    </contour>
  </outline>
</glyph>
<glyph name="qafDotless-ar" format="1">
  <advance width="1075"/>
  <unicode hex="066F"/>
  <outline>
    <contour>
      <point x="990" y="96" type="line"/>
      <point x="725" y="-11"/>
      <point x="472" y="53"/>
      <point x="470" y="225" type="curve"/>
      <point x="470" y="348"/>
      <point x="578" y="460"/>
      <point x="696" y="460" type="curve" smooth="yes"/>
      <point x="980" y="460"/>
      <point x="1039" y="-260"/>
      <point x="770" y="-441" type="curve" smooth="yes"/>
      <point x="546" y="-591"/>
      <point x="120" y="-470"/>
      <point x="130" y="-1" type="curve"/>
      <point x="40" y="1" type="line"/>
      <point x="28" y="-538"/>
      <point x="562" y="-689"/>
      <point x="820" y="-515" type="curve" smooth="yes"/>
      <point x="1167" y="-284"/>
      <point x="1072" y="550"/>
      <point x="696" y="550" type="curve" smooth="yes"/>
      <point x="529" y="550"/>
      <point x="380" y="397"/>
      <point x="380" y="225" type="curve" smooth="yes"/>
      <point x="383" y="-20"/>
      <point x="697" y="-120"/>
      <point x="1024" y="12" type="curve"/>
    </contour>
    <contour>
      <point x="672" y="812" type="move" name="top"/>
    </contour>
  </outline>
</glyph>
<glyph name="alefabove-ar" format="1">
  <advance width="600"/>
  <unicode hex="0670"/>
  <outline>
    <contour>
      <point x="342" y="971" type="line"/>
      <point x="345" y="909"/>
      <point x="347" y="817"/>
      <point x="348" y="755" type="curve"/>
      <point x="438" y="757" type="line"/>
      <point x="437" y="819"/>
      <point x="435" y="913"/>
      <point x="432" y="975" type="curve"/>
    </contour>
    <contour>
      <point x="390" y="735" type="move" name="_top"/>
    </contour>
    <contour>
      <point x="390" y="975" type="move" name="top"/>
    </contour>
  </outline>
</glyph>
<glyph name="fehDotless-ar" format="1">
  <advance width="1416"/>
  <unicode hex="06A1"/>
  <outline>
    <contour>
      <point x="1316" y="300" type="line"/>
      <point x="1255" y="271"/>
      <point x="1142" y="250"/>
      <point x="1040" y="250" type="curve" smooth="yes"/>
      <point x="903" y="250"/>
      <point x="845" y="298"/>
      <point x="845" y="406" type="curve" smooth="yes"/>
      <point x="845" y="492"/>
      <point x="892" y="570"/>
      <point x="972" y="615" type="curve" smooth="yes"/>
      <point x="1118" y="697"/>
      <point x="1286" y="524"/>
      <point x="1286" y="287" type="curve" smooth="yes"/>
      <point x="1286" y="121"/>
      <point x="1131" y="112"/>
      <point x="953" y="93" type="curve" smooth="yes"/>
      <point x="906" y="88"/>
      <point x="594" y="88"/>
      <point x="514" y="93" type="curve" smooth="yes"/>
      <point x="154" y="115"/>
      <point x="64" y="246"/>
      <point x="171" y="603" type="curve"/>
      <point x="85" y="629" type="line"/>
      <point x="-39" y="216"/>
      <point x="88" y="27"/>
      <point x="508" y="3" type="curve" smooth="yes"/>
      <point x="594" y="-2"/>
      <point x="910" y="-2"/>
      <point x="963" y="3" type="curve" smooth="yes"/>
      <point x="1139" y="20"/>
      <point x="1376" y="37"/>
      <point x="1376" y="287" type="curve" smooth="yes"/>
      <point x="1376" y="594"/>
      <point x="1139" y="813"/>
      <point x="928" y="693" type="curve" smooth="yes"/>
      <point x="821" y="632"/>
      <point x="755" y="524"/>
      <point x="755" y="406" type="curve" smooth="yes"/>
      <point x="755" y="245"/>
      <point x="855" y="160"/>
      <point x="1040" y="160" type="curve" smooth="yes"/>
      <point x="1153" y="160"/>
      <point x="1284" y="185"/>
      <point x="1356" y="220" type="curve"/>
    </contour>
    <contour>
      <point x="965" y="1000" type="move" name="top"/>
    </contour>
  </outline>
</glyph>
<glyph name="noonghunna-ar" format="1">
  <advance width="919"/>
  <unicode hex="06BA"/>
  <outline>
    <contour>
      <point x="780" y="497" type="line"/>
      <point x="832" y="58"/>
      <point x="934" y="-460"/>
      <point x="513" y="-470" type="curve" smooth="yes"/>
      <point x="207" y="-477"/>
      <point x="80" y="-289"/>
      <point x="146" y="50" type="curve"/>
      <point x="58" y="68" type="line"/>
      <point x="-19" y="-329"/>
      <point x="150" y="-568"/>
      <point x="515" y="-560" type="curve" smooth="yes"/>
      <point x="1044" y="-548"/>
      <point x="920" y="72"/>
      <point x="870" y="507" type="curve"/>
    </contour>
    <contour>
      <point x="907" y="0" type="move" name="#entry"/>
    </contour>
    <contour>
      <point x="420" y="300" type="move" name="top"/>
    </contour>
  </outline>
</glyph>
<glyph name="noonghunna-ar.fina" format="1">
  <advance width="1045"/>
  <unicode hex="FB9F"/>
  <outline>
    <component base="_connection2" xScale="0.4628" xOffset="907"/>
    <component base="noonghunna-ar"/>
    <contour>
      <point x="383" y="305" type="move" name="top"/>
    </contour>
  </outline>
</glyph>
<glyph name="alef-ar.fina" format="1">
  <advance width="239"/>
  <unicode hex="FE8E"/>
  <outline>
    <contour>
      <point x="239" y="90" type="line"/>
      <point x="140" y="90"/>
      <point x="110" y="166"/>
      <point x="110" y="465" type="curve" smooth="yes"/>
      <point x="110" y="480"/>
      <point x="109" y="974"/>
      <point x="110" y="1081" type="curve"/>
      <point x="20" y="1081" type="line"/>
      <point x="19" y="938"/>
      <point x="20" y="530"/>
      <point x="20" y="465" type="curve" smooth="yes"/>
      <point x="20" y="187"/>
      <point x="47" y="0"/>
      <point x="239" y="0" type="curve"/>
    </contour>
    <contour>
      <point x="239" y="0" type="move" name="#entry"/>
    </contour>
    <contour>
      <point x="57" y="-203" type="move" name="_top"/>
    </contour>
    <contour>
      <point x="59" y="1148" type="move" name="top"/>
    </contour>
  </outline>
</glyph>
<glyph name="hah-ar.fina" format="1">
  <advance width="965"/>
  <unicode hex="FEA2"/>
  <outline>
    <contour>
      <point x="965" y="93" type="line"/>
      <point x="860" y="55"/>
      <point x="830" y="49"/>
      <point x="725" y="76" type="curve"/>
      <point x="699" y="-10" type="line"/>
      <point x="786" y="-30"/>
      <point x="849" y="-35"/>
      <point x="965" y="3" type="curve"/>
    </contour>
    <component base="hah-ar"/>
    <contour>
      <point x="964" y="3" type="move" name="#entry"/>
    </contour>
  </outline>
</glyph>
<glyph name="hah-ar.init" format="1">
  <advance width="880"/>
  <unicode hex="FEA3"/>
  <outline>
    <contour>
      <point x="83" y="316" type="line"/>
      <point x="102" y="344"/>
      <point x="196" y="503"/>
      <point x="313" y="503" type="curve" smooth="yes"/>
      <point x="371" y="503"/>
      <point x="430" y="458"/>
      <point x="491" y="364" type="curve" smooth="yes"/>
      <point x="556" y="264"/>
      <point x="619" y="125"/>
      <point x="808" y="52" type="curve"/>
      <point x="840" y="136" type="line"/>
      <point x="685" y="195"/>
      <point x="635" y="308"/>
      <point x="567" y="412" type="curve" smooth="yes"/>
      <point x="489" y="532"/>
      <point x="404" y="593"/>
      <point x="313" y="593" type="curve" smooth="yes"/>
      <point x="144" y="593"/>
      <point x="26" y="392"/>
      <point x="9" y="368" type="curve"/>
    </contour>
    <contour>
      <point x="644" y="206" type="line"/>
      <point x="642" y="205"/>
      <point x="639" y="204"/>
      <point x="636" y="202" type="curve"/>
      <point x="629" y="199"/>
      <point x="619" y="195"/>
      <point x="609" y="189" type="curve" smooth="yes"/>
      <point x="424" y="78"/>
      <point x="277" y="89"/>
      <point x="105" y="89" type="curve" smooth="yes"/>
      <point x="71" y="89"/>
      <point x="36" y="90"/>
      <point x="0" y="90" type="curve"/>
      <point x="0" y="0" type="line"/>
      <point x="212" y="2"/>
      <point x="399" y="-30"/>
      <point x="653" y="111" type="curve" smooth="yes"/>
      <point x="662" y="116"/>
      <point x="675" y="123"/>
      <point x="682" y="126" type="curve"/>
    </contour>
    <contour>
      <point x="0" y="0" type="move" name="#exit"/>
    </contour>
    <contour>
      <point x="324" y="-97" type="move" name="bottom"/>
    </contour>
    <contour>
      <point x="136" y="835" type="move" name="top"/>
    </contour>
  </outline>
</glyph>
<glyph name="hah-ar.medi" format="1">
  <advance width="1086"/>
  <unicode hex="FEA4"/>
  <outline>
    <contour>
      <point x="1086" y="90" type="line"/>
      <point x="1002" y="92"/>
      <point x="900" y="112"/>
      <point x="840" y="136" type="curve"/>
      <point x="808" y="52" type="line"/>
      <point x="878" y="24"/>
      <point x="991" y="2"/>
      <point x="1086" y="0" type="curve"/>
    </contour>
    <component base="hah-ar.init"/>
  </outline>
</glyph>
<glyph name="dal-ar.fina" format="1">
  <advance width="814"/>
  <unicode hex="FEAA"/>
  <outline>
    <contour>
      <point x="508" y="267" type="line"/>
      <point x="520" y="127"/>
      <point x="538" y="-20"/>
      <point x="814" y="0" type="curve"/>
      <point x="814" y="90" type="line"/>
      <point x="634" y="70"/>
      <point x="610" y="133"/>
      <point x="596" y="285" type="curve"/>
    </contour>
    <component base="dal-ar" yOffset="-5"/>
    <contour>
      <point x="814" y="0" type="move" name="#entry"/>
    </contour>
    <contour>
      <point x="87" y="756" type="move" name="top"/>
    </contour>
  </outline>
</glyph>
<glyph name="seen-ar.fina" format="1">
  <advance width="1717"/>
  <unicode hex="FEB2"/>
  <outline>
    <contour>
      <point x="1411" y="267" type="line"/>
      <point x="1423" y="127"/>
      <point x="1441" y="-20"/>
      <point x="1717" y="0" type="curve"/>
      <point x="1717" y="90" type="line"/>
      <point x="1537" y="70"/>
      <point x="1513" y="133"/>
      <point x="1499" y="285" type="curve"/>
    </contour>
    <component base="seen-ar" yOffset="31"/>
    <contour>
      <point x="1717" y="0" type="move" name="#entry"/>
    </contour>
    <contour>
      <point x="903" y="814" type="move" name="top"/>
    </contour>
  </outline>
</glyph>
<glyph name="seen-ar.init" format="1">
  <advance width="1080"/>
  <unicode hex="FEB3"/>
  <outline>
    <contour>
      <point x="0" y="0" type="line"/>
      <point x="336" y="0"/>
      <point x="334" y="265"/>
      <point x="312" y="459" type="curve"/>
      <point x="222" y="450" type="line"/>
      <point x="232" y="422"/>
      <point x="231" y="2"/>
      <point x="472" y="2" type="curve" smooth="yes"/>
      <point x="698" y="2"/>
      <point x="698" y="263"/>
      <point x="676" y="527" type="curve"/>
      <point x="586" y="518" type="line"/>
      <point x="596" y="430"/>
      <point x="592" y="-2"/>
      <point x="833" y="-2" type="curve" smooth="yes"/>
      <point x="1059" y="-2"/>
      <point x="1057" y="263"/>
      <point x="1025" y="597" type="curve"/>
      <point x="935" y="589" type="line"/>
      <point x="972" y="194"/>
      <point x="944" y="88"/>
      <point x="833" y="88" type="curve" smooth="yes"/>
      <point x="682" y="88"/>
      <point x="686" y="434"/>
      <point x="676" y="528" type="curve"/>
      <point x="586" y="519" type="line"/>
      <point x="613" y="198"/>
      <point x="584" y="92"/>
      <point x="472" y="92" type="curve" smooth="yes"/>
      <point x="321" y="92"/>
      <point x="322" y="366"/>
      <point x="312" y="460" type="curve"/>
      <point x="222" y="451" type="line"/>
      <point x="249" y="196"/>
      <point x="221" y="90"/>
      <point x="0" y="90" type="curve"/>
    </contour>
    <contour>
      <point x="0" y="0" type="move" name="#entry"/>
    </contour>
    <contour>
      <point x="613" y="748" type="move" name="top"/>
    </contour>
  </outline>
</glyph>
<glyph name="seen-ar.medi" format="1">
  <advance width="1299"/>
  <unicode hex="FEB4"/>
  <outline>
    <contour>
      <point x="1299" y="90" type="line"/>
      <point x="1105" y="90"/>
      <point x="1037" y="186"/>
      <point x="1040" y="359" type="curve"/>
      <point x="953" y="361" type="line"/>
      <point x="950" y="138"/>
      <point x="1052" y="0"/>
      <point x="1299" y="0" type="curve"/>
    </contour>
    <component base="seen-ar.init"/>
    <contour>
      <point x="1299" y="0" type="move" name="#entry"/>
    </contour>
    <contour>
      <point x="0" y="0" type="move" name="#exit"/>
    </contour>
    <contour>
      <point x="539" y="779" type="move" name="top"/>
    </contour>
  </outline>
</glyph>
<glyph name="sad-ar.init" format="1">
  <advance width="1175"/>
  <unicode hex="FEBB"/>
  <outline>
    <contour>
      <point x="43" y="527" type="line"/>
      <point x="48" y="308"/>
      <point x="66" y="90"/>
      <point x="0" y="90" type="curve"/>
      <point x="0" y="0" type="line"/>
      <point x="147" y="0"/>
      <point x="139" y="120"/>
      <point x="133" y="529" type="curve"/>
    </contour>
    <contour>
      <point x="278" y="2" type="line"/>
      <point x="330" y="279"/>
      <point x="633" y="546"/>
      <point x="889" y="546" type="curve" smooth="yes"/>
      <point x="996" y="546"/>
      <point x="1065" y="475"/>
      <point x="1065" y="362" type="curve" smooth="yes"/>
      <point x="1065" y="84"/>
      <point x="859" y="90"/>
      <point x="566" y="90" type="curve" smooth="yes"/>
      <point x="451" y="90"/>
      <point x="285" y="90"/>
      <point x="239" y="90" type="curve" smooth="yes"/>
      <point x="171" y="90"/>
      <point x="131" y="117"/>
      <point x="131" y="166" type="curve"/>
      <point x="43" y="166" type="line"/>
      <point x="41" y="65"/>
      <point x="121" y="0"/>
      <point x="239" y="0" type="curve" smooth="yes"/>
      <point x="286" y="0"/>
      <point x="451" y="0"/>
      <point x="566" y="0" type="curve" smooth="yes"/>
      <point x="857" y="0"/>
      <point x="1155" y="-8"/>
      <point x="1155" y="362" type="curve" smooth="yes"/>
      <point x="1155" y="524"/>
      <point x="1046" y="636"/>
      <point x="889" y="636" type="curve" smooth="yes"/>
      <point x="590" y="636"/>
      <point x="252" y="339"/>
      <point x="190" y="20" type="curve"/>
    </contour>
    <contour>
      <point x="566" y="0" type="move" name="#entry"/>
    </contour>
    <contour>
      <point x="0" y="0" type="move" name="#exit"/>
    </contour>
    <contour>
      <point x="230" y="863" type="move" name="top"/>
    </contour>
  </outline>
</glyph>
<glyph name="tah-ar.init" format="1">
  <advance width="1126"/>
  <unicode hex="FEC3"/>
  <outline>
    <contour>
      <point x="174" y="14" type="line"/>
      <point x="206" y="359"/>
      <point x="419" y="561"/>
      <point x="751" y="561" type="curve" smooth="yes"/>
      <point x="921" y="561"/>
      <point x="1016" y="479"/>
      <point x="1016" y="335" type="curve" smooth="yes"/>
      <point x="1016" y="134"/>
      <point x="938" y="90"/>
      <point x="552" y="90" type="curve" smooth="yes"/>
      <point x="419" y="90"/>
      <point x="40" y="90"/>
      <point x="0" y="90" type="curve"/>
      <point x="0" y="0" type="line"/>
      <point x="38" y="0"/>
      <point x="419" y="0"/>
      <point x="552" y="0" type="curve" smooth="yes"/>
      <point x="982" y="0"/>
      <point x="1106" y="72"/>
      <point x="1106" y="335" type="curve" smooth="yes"/>
      <point x="1106" y="530"/>
      <point x="970" y="651"/>
      <point x="751" y="651" type="curve" smooth="yes"/>
      <point x="373" y="651"/>
      <point x="120" y="413"/>
      <point x="84" y="22" type="curve"/>
    </contour>
    <contour>
      <point x="105" y="1050" type="line"/>
      <point x="105" y="964"/>
      <point x="106" y="891"/>
      <point x="106" y="823" type="curve" smooth="yes"/>
      <point x="106" y="578"/>
      <point x="109" y="399"/>
      <point x="82" y="-71" type="curve"/>
      <point x="172" y="-77" type="line"/>
      <point x="207" y="529"/>
      <point x="195" y="658"/>
      <point x="195" y="1050" type="curve"/>
    </contour>
    <contour>
      <point x="552" y="0" type="move" name="#entry"/>
    </contour>
    <contour>
      <point x="0" y="0" type="move" name="#exit"/>
    </contour>
    <contour>
      <point x="413" y="893" type="move" name="top"/>
    </contour>
  </outline>
</glyph>
<glyph name="ain-ar.fina" format="1">
  <advance width="651"/>
  <unicode hex="FECA"/>
  <outline>
    <contour>
      <point x="651" y="90" type="line"/>
      <point x="391" y="90"/>
      <point x="113" y="268"/>
      <point x="113" y="434" type="curve" smooth="yes"/>
      <point x="113" y="484"/>
      <point x="368" y="517"/>
      <point x="493" y="474" type="curve" smooth="yes"/>
      <point x="622" y="430"/>
      <point x="536" y="245"/>
      <point x="319" y="102" type="curve" smooth="yes"/>
      <point x="189" y="16"/>
      <point x="42" y="-82"/>
      <point x="42" y="-241" type="curve" smooth="yes"/>
      <point x="42" y="-450"/>
      <point x="291" y="-570"/>
      <point x="600" y="-519" type="curve"/>
      <point x="586" y="-431" type="line"/>
      <point x="333" y="-472"/>
      <point x="132" y="-387"/>
      <point x="132" y="-241" type="curve" smooth="yes"/>
      <point x="132" y="-130"/>
      <point x="239" y="-60"/>
      <point x="369" y="26" type="curve" smooth="yes"/>
      <point x="657" y="216"/>
      <point x="738" y="486"/>
      <point x="523" y="560" type="curve" smooth="yes"/>
      <point x="315" y="632"/>
      <point x="23" y="564"/>
      <point x="23" y="434" type="curve" smooth="yes"/>
      <point x="23" y="165"/>
      <point x="433" y="0"/>
      <point x="651" y="0" type="curve"/>
    </contour>
    <contour>
      <point x="651" y="0" type="move" name="#entry"/>
    </contour>
    <contour>
      <point x="291" y="834" type="move" name="top"/>
    </contour>
  </outline>
</glyph>
<glyph name="ain-ar.init" format="1">
  <advance width="600"/>
  <unicode hex="FECB"/>
  <outline>
    <contour>
      <point x="292" y="95" type="line"/>
      <point x="180" y="144"/>
      <point x="105" y="231"/>
      <point x="105" y="308" type="curve" smooth="yes"/>
      <point x="105" y="478"/>
      <point x="281" y="588"/>
      <point x="449" y="524" type="curve"/>
      <point x="481" y="608" type="line"/>
      <point x="254" y="694"/>
      <point x="15" y="541"/>
      <point x="15" y="308" type="curve" smooth="yes"/>
      <point x="15" y="193"/>
      <point x="111" y="76"/>
      <point x="256" y="13" type="curve"/>
    </contour>
    <contour>
      <point x="554" y="123" type="line"/>
      <point x="454" y="108"/>
      <point x="301" y="97"/>
      <point x="172" y="92" type="curve" smooth="yes"/>
      <point x="118" y="90"/>
      <point x="57" y="91"/>
      <point x="0" y="90" type="curve"/>
      <point x="0" y="0" type="line"/>
      <point x="57" y="0"/>
      <point x="120" y="0"/>
      <point x="176" y="2" type="curve" smooth="yes"/>
      <point x="307" y="7"/>
      <point x="462" y="19"/>
      <point x="568" y="34" type="curve"/>
    </contour>
    <contour>
      <point x="0" y="0" type="move" name="#entry"/>
    </contour>
    <contour>
      <point x="303" y="877" type="move" name="top"/>
    </contour>
  </outline>
</glyph>
<glyph name="ain-ar.medi" format="1">
  <advance width="678"/>
  <unicode hex="FECC"/>
  <outline>
    <contour>
      <point x="678" y="90" type="line"/>
      <point x="474" y="90"/>
      <point x="97" y="216"/>
      <point x="90" y="466" type="curve" smooth="yes"/>
      <point x="88" y="523"/>
      <point x="380" y="552"/>
      <point x="524" y="503" type="curve" smooth="yes"/>
      <point x="565" y="489"/>
      <point x="588" y="445"/>
      <point x="588" y="371" type="curve" smooth="yes"/>
      <point x="588" y="98"/>
      <point x="310" y="90"/>
      <point x="0" y="90" type="curve"/>
      <point x="0" y="0" type="line"/>
      <point x="312" y="0"/>
      <point x="678" y="10"/>
      <point x="678" y="371" type="curve" smooth="yes"/>
      <point x="678" y="482"/>
      <point x="634" y="561"/>
      <point x="554" y="589" type="curve" smooth="yes"/>
      <point x="419" y="636"/>
      <point x="-1" y="636"/>
      <point x="0" y="466" type="curve" smooth="yes"/>
      <point x="1" y="150"/>
      <point x="460" y="0"/>
      <point x="678" y="0" type="curve"/>
    </contour>
    <contour>
      <point x="678" y="0" type="move" name="#entry"/>
    </contour>
    <contour>
      <point x="0" y="0" type="move" name="#exit"/>
    </contour>
    <contour>
      <point x="313" y="870" type="move" name="top"/>
    </contour>
  </outline>
</glyph>
<glyph name="kaf-ar.fina" format="1">
  <advance width="1354"/>
  <unicode hex="FEDA"/>
  <outline>
    <contour>
      <point x="1354" y="90" type="line"/>
      <point x="1075" y="90"/>
      <point x="1115" y="348"/>
      <point x="1115" y="528" type="curve"/>
      <point x="1021" y="528" type="line"/>
      <point x="1021" y="344"/>
      <point x="983" y="0"/>
      <point x="1354" y="0" type="curve"/>
    </contour>
    <component base="kaf-ar"/>
    <contour>
      <point x="1354" y="0" type="move" name="#entry"/>
    </contour>
  </outline>
</glyph>
<glyph name="kaf-ar.init" format="1">
  <advance width="792"/>
  <unicode hex="FEDB"/>
  <outline>
    <contour>
      <point x="0" y="0" type="line"/>
      <point x="139" y="0"/>
      <point x="315" y="0"/>
      <point x="469" y="0" type="curve" smooth="yes"/>
      <point x="606" y="0"/>
      <point x="772" y="15"/>
      <point x="772" y="194" type="curve" smooth="yes"/>
      <point x="772" y="388"/>
      <point x="582" y="410"/>
      <point x="430" y="428" type="curve" smooth="yes"/>
      <point x="274" y="446"/>
      <point x="155" y="460"/>
      <point x="155" y="588" type="curve" smooth="yes"/>
      <point x="155" y="675"/>
      <point x="400" y="805"/>
      <point x="727" y="1002" type="curve"/>
      <point x="681" y="1080" type="line"/>
      <point x="356" y="883"/>
      <point x="65" y="729"/>
      <point x="65" y="588" type="curve" smooth="yes"/>
      <point x="65" y="190"/>
      <point x="682" y="441"/>
      <point x="682" y="194" type="curve" smooth="yes"/>
      <point x="682" y="114"/>
      <point x="634" y="90"/>
      <point x="469" y="90" type="curve" smooth="yes"/>
      <point x="316" y="90"/>
      <point x="138" y="90"/>
      <point x="0" y="90" type="curve"/>
    </contour>
    <contour>
      <point x="469" y="0" type="move" name="#entry"/>
    </contour>
    <contour>
      <point x="0" y="0" type="move" name="#exit"/>
    </contour>
  </outline>
</glyph>
<glyph name="lam-ar.init" format="1">
  <advance width="424"/>
  <unicode hex="FEDF"/>
  <outline>
    <contour>
      <point x="293" y="1041" type="line"/>
      <point x="293" y="94"/>
      <point x="324" y="90"/>
      <point x="0" y="90" type="curve"/>
      <point x="0" y="0" type="line"/>
      <point x="427" y="0"/>
      <point x="383" y="125"/>
      <point x="383" y="1041" type="curve"/>
    </contour>
    <contour>
      <point x="0" y="0" type="move" name="#entry"/>
    </contour>
  </outline>
</glyph>
<glyph name="lam-ar.medi" format="1">
  <advance width="408"/>
  <unicode hex="FEE0"/>
  <outline>
    <contour>
      <point x="178" y="1083" type="line"/>
      <point x="189" y="683"/>
      <point x="188" y="648"/>
      <point x="188" y="247" type="curve" smooth="yes"/>
      <point x="188" y="91"/>
      <point x="269" y="0"/>
      <point x="408" y="0" type="curve"/>
      <point x="408" y="90" type="line"/>
      <point x="320" y="90"/>
      <point x="278" y="140"/>
      <point x="278" y="247" type="curve" smooth="yes"/>
      <point x="278" y="646"/>
      <point x="279" y="683"/>
      <point x="268" y="1085" type="curve"/>
    </contour>
    <contour>
      <point x="188" y="271" type="line"/>
      <point x="188" y="91"/>
      <point x="142" y="90"/>
      <point x="0" y="90" type="curve"/>
      <point x="0" y="0" type="line"/>
      <point x="142" y="0"/>
      <point x="278" y="1"/>
      <point x="278" y="271" type="curve"/>
    </contour>
    <contour>
      <point x="408" y="0" type="move" name="#entry"/>
    </contour>
    <contour>
      <point x="0" y="0" type="move" name="#exit"/>
    </contour>
  </outline>
</glyph>
<glyph name="meem-ar.fina" format="1">
  <advance width="867"/>
  <unicode hex="FEE2"/>
  <outline>
    <component base="_connection2" xScale="1.165" xOffset="520"/>
    <component base="meem-ar" xOffset="-5"/>
    <contour>
      <point x="867" y="0" type="move" name="#entry"/>
    </contour>
  </outline>
</glyph>
<glyph name="meem-ar.init" format="1">
  <advance width="815"/>
  <unicode hex="FEE3"/>
  <outline>
    <contour>
      <point x="494" y="1" type="curve" smooth="yes"/>
      <point x="655" y="1"/>
      <point x="775" y="138"/>
      <point x="775" y="319" type="curve" smooth="yes"/>
      <point x="775" y="500"/>
      <point x="655" y="637"/>
      <point x="494" y="637" type="curve" smooth="yes"/>
      <point x="330" y="637"/>
      <point x="203" y="497"/>
      <point x="203" y="319" type="curve" smooth="yes"/>
      <point x="203" y="141"/>
      <point x="330" y="1"/>
    </contour>
    <contour>
      <point x="494" y="91" type="curve" smooth="yes"/>
      <point x="380" y="91"/>
      <point x="293" y="190"/>
      <point x="293" y="319" type="curve" smooth="yes"/>
      <point x="293" y="448"/>
      <point x="380" y="547"/>
      <point x="494" y="547" type="curve" smooth="yes"/>
      <point x="604" y="547"/>
      <point x="685" y="451"/>
      <point x="685" y="319" type="curve" smooth="yes"/>
      <point x="685" y="187"/>
      <point x="604" y="91"/>
    </contour>
    <contour>
      <point x="178" y="624" type="line"/>
      <point x="218" y="281"/>
      <point x="240" y="90"/>
      <point x="0" y="90" type="curve"/>
      <point x="0" y="0" type="line"/>
      <point x="340" y="0"/>
      <point x="308" y="287"/>
      <point x="268" y="624" type="curve"/>
    </contour>
    <contour>
      <point x="0" y="0" type="move" name="#exit"/>
    </contour>
  </outline>
</glyph>
<glyph name="meem-ar.medi" format="1">
  <advance width="985"/>
  <unicode hex="FEE4"/>
  <outline>
    <contour>
      <point x="687" y="310" type="line"/>
      <point x="680" y="98"/>
      <point x="709" y="0"/>
      <point x="985" y="0" type="curve"/>
      <point x="985" y="90" type="line"/>
      <point x="805" y="90"/>
      <point x="770" y="121"/>
      <point x="775" y="323" type="curve"/>
    </contour>
    <component base="meem-ar.init"/>
    <contour>
      <point x="985" y="0" type="move" name="#entry"/>
    </contour>
    <contour>
      <point x="0" y="0" type="move" name="#exit"/>
    </contour>
  </outline>
</glyph>
<glyph name="heh-ar.fina" format="1">
  <advance width="911"/>
  <unicode hex="FEEA"/>
  <outline>
    <contour>
      <point x="382" y="0" type="curve" smooth="yes"/>
      <point x="638" y="0"/>
      <point x="765" y="111"/>
      <point x="765" y="337" type="curve" smooth="yes"/>
      <point x="765" y="772"/>
      <point x="37" y="751"/>
      <point x="40" y="279" type="curve" smooth="yes"/>
      <point x="41" y="92"/>
      <point x="155" y="0"/>
    </contour>
    <contour>
      <point x="382" y="90" type="curve" smooth="yes"/>
      <point x="203" y="90"/>
      <point x="131" y="146"/>
      <point x="130" y="279" type="curve" smooth="yes"/>
      <point x="127" y="633"/>
      <point x="675" y="652"/>
      <point x="675" y="337" type="curve" smooth="yes"/>
      <point x="675" y="163"/>
      <point x="589" y="90"/>
    </contour>
    <contour>
      <point x="666" y="659" type="line"/>
      <point x="670" y="148"/>
      <point x="726" y="0"/>
      <point x="911" y="0" type="curve"/>
      <point x="911" y="90" type="line"/>
      <point x="797" y="90"/>
      <point x="760" y="195"/>
      <point x="756" y="659" type="curve"/>
    </contour>
    <contour>
      <point x="911" y="0" type="move" name="#entry"/>
    </contour>
    <contour>
      <point x="394" y="860" type="move" name="top"/>
    </contour>
  </outline>
</glyph>
<glyph name="heh-ar.init" format="1">
  <advance width="1001"/>
  <unicode hex="FEEB"/>
  <outline>
    <contour>
      <point x="114" y="768" type="line"/>
      <point x="1091" y="654"/>
      <point x="1063" y="-51"/>
      <point x="368" y="127" type="curve" smooth="yes"/>
      <point x="126" y="189"/>
      <point x="89" y="540"/>
      <point x="320" y="581" type="curve" smooth="yes"/>
      <point x="576" y="626"/>
      <point x="554" y="186"/>
      <point x="295" y="121" type="curve" smooth="yes"/>
      <point x="140" y="82"/>
      <point x="40" y="88"/>
      <point x="0" y="90" type="curve"/>
      <point x="0" y="0" type="line"/>
      <point x="34" y="-2"/>
      <point x="148" y="-9"/>
      <point x="317" y="33" type="curve" smooth="yes"/>
      <point x="689" y="125"/>
      <point x="678" y="735"/>
      <point x="304" y="669" type="curve" smooth="yes"/>
      <point x="-23" y="611"/>
      <point x="11" y="126"/>
      <point x="346" y="39" type="curve" smooth="yes"/>
      <point x="1181" y="-178"/>
      <point x="1221" y="730"/>
      <point x="124" y="858" type="curve"/>
    </contour>
    <contour>
      <point x="0" y="0" type="move" name="#exit"/>
    </contour>
  </outline>
</glyph>
<glyph name="heh-ar.medi" format="1">
  <advance width="914"/>
  <unicode hex="FEEC"/>
  <outline>
    <contour>
      <point x="914" y="91" type="line"/>
      <point x="557" y="64"/>
      <point x="296" y="114"/>
      <point x="246" y="212" type="curve" smooth="yes"/>
      <point x="133" y="434"/>
      <point x="423" y="802"/>
      <point x="639" y="288" type="curve" smooth="yes"/>
      <point x="684" y="181"/>
      <point x="706" y="85"/>
      <point x="706" y="-6" type="curve" smooth="yes"/>
      <point x="706" y="-429"/>
      <point x="205" y="-524"/>
      <point x="205" y="-240" type="curve" smooth="yes"/>
      <point x="205" y="-157"/>
      <point x="267" y="-53"/>
      <point x="387" y="59" type="curve"/>
      <point x="325" y="125" type="line"/>
      <point x="188" y="-4"/>
      <point x="115" y="-129"/>
      <point x="115" y="-240" type="curve" smooth="yes"/>
      <point x="115" y="-662"/>
      <point x="796" y="-536"/>
      <point x="796" y="-6" type="curve" smooth="yes"/>
      <point x="796" y="96"/>
      <point x="771" y="207"/>
      <point x="721" y="324" type="curve" smooth="yes"/>
      <point x="435" y="993"/>
      <point x="16" y="462"/>
      <point x="166" y="170" type="curve" smooth="yes"/>
      <point x="238" y="30"/>
      <point x="518" y="-29"/>
      <point x="914" y="1" type="curve"/>
    </contour>
    <contour>
      <point x="339" y="129" type="line"/>
      <point x="271" y="101"/>
      <point x="175" y="90"/>
      <point x="0" y="90" type="curve"/>
      <point x="0" y="0" type="line"/>
      <point x="151" y="0"/>
      <point x="280" y="8"/>
      <point x="373" y="45" type="curve"/>
    </contour>
    <contour>
      <point x="914" y="1" type="move" name="#entry"/>
    </contour>
    <contour>
      <point x="0" y="1" type="move" name="#exit"/>
    </contour>
  </outline>
</glyph>
<glyph name="waw-ar.fina" format="1">
  <advance width="747"/>
  <unicode hex="FEEE"/>
  <outline>
    <component base="waw-ar" xScale="0.9991" xyScale="-0.0433" yScale="0.9991" yxScale="0.0433" xOffset="3" yOffset="31"/>
    <component base="_connection2" xScale="0.506" xOffset="596"/>
    <contour>
      <point x="174" y="813" type="move" name="top"/>
    </contour>
  </outline>
</glyph>
<glyph name="alefMaksura-ar.fina" format="1">
  <advance width="960"/>
  <unicode hex="FEF0"/>
  <outline>
    <contour>
      <point x="960" y="90" type="line"/>
      <point x="835" y="90"/>
      <point x="778" y="87"/>
      <point x="628" y="108" type="curve"/>
      <point x="616" y="18" type="line"/>
      <point x="774" y="-3"/>
      <point x="837" y="0"/>
      <point x="960" y="0" type="curve"/>
    </contour>
    <contour>
      <point x="794" y="45" type="line"/>
      <point x="907" y="-271"/>
      <point x="812" y="-436"/>
      <point x="514" y="-436" type="curve" smooth="yes"/>
      <point x="285" y="-436"/>
      <point x="130" y="-290"/>
      <point x="130" y="-77" type="curve" smooth="yes"/>
      <point x="130" y="-14"/>
      <point x="140" y="53"/>
      <point x="149" y="123" type="curve"/>
      <point x="59" y="135" type="line"/>
      <point x="50" y="65"/>
      <point x="40" y="-8"/>
      <point x="40" y="-77" type="curve" smooth="yes"/>
      <point x="40" y="-341"/>
      <point x="236" y="-526"/>
      <point x="514" y="-526" type="curve" smooth="yes"/>
      <point x="876" y="-526"/>
      <point x="1013" y="-299"/>
      <point x="878" y="75" type="curve"/>
    </contour>
    <contour>
      <point x="960" y="0" type="move" name="#entry"/>
    </contour>
    <contour>
      <point x="385" y="442" type="move" name="top"/>
    </contour>
  </outline>
</glyph>
<glyph name="_connection2" format="1">
  <advance width="298"/>
  <outline>
    <contour>
      <point x="298" y="90" type="line"/>
      <point x="0" y="90" type="line"/>
      <point x="0" y="0" type="line"/>
      <point x="298" y="0" type="line"/>
    </contour>
    <contour>
      <point x="298" y="0" type="move" name="#entry"/>
    </contour>
    <contour>
      <point x="0" y="0" type="move" name="#exit"/>
    </contour>
  </outline>
</glyph>
<glyph name="_twodots" format="1">
  <advance width="600"/>
  <outline>
    <contour>
      <point x="95" y="-28" type="curve"/>
      <point x="155" y="20"/>
      <point x="225" y="30"/>
      <point x="272" y="0" type="curve" smooth="yes"/>
      <point x="360" y="-56"/>
      <point x="491" y="-54"/>
      <point x="546" y="8" type="curve" smooth="yes"/>
      <point x="601" y="70"/>
      <point x="542" y="123"/>
      <point x="478" y="68" type="curve" smooth="yes"/>
      <point x="441" y="36"/>
      <point x="371" y="44"/>
      <point x="320" y="76" type="curve" smooth="yes"/>
      <point x="239" y="127"/>
      <point x="129" y="114"/>
      <point x="39" y="42" type="curve" smooth="yes"/>
      <point x="-26" y="-10"/>
      <point x="25" y="-76"/>
    </contour>
  </outline>
</glyph>
<glyph name="behDotless-ar.fina" format="1">
  <advance width="1357"/>
  <outline>
    <contour>
      <point x="1120" y="544" type="line"/>
      <point x="1120" y="515"/>
      <point x="1121" y="483"/>
      <point x="1122" y="451" type="curve" smooth="yes"/>
      <point x="1130" y="180"/>
      <point x="1106" y="89"/>
      <point x="1031" y="89" type="curve" smooth="yes"/>
      <point x="799" y="89"/>
      <point x="654" y="89"/>
      <point x="485" y="89" type="curve" smooth="yes"/>
      <point x="158" y="89"/>
      <point x="110" y="144"/>
      <point x="110" y="544" type="curve"/>
      <point x="20" y="544" type="line"/>
      <point x="20" y="96"/>
      <point x="103" y="-1"/>
      <point x="485" y="-1" type="curve" smooth="yes"/>
      <point x="654" y="-1"/>
      <point x="798" y="-2"/>
      <point x="1031" y="-1" type="curve" smooth="yes"/>
      <point x="1256" y="0"/>
      <point x="1210" y="359"/>
      <point x="1210" y="544" type="curve"/>
    </contour>
    <contour>
      <point x="1123" y="318" type="line"/>
      <point x="1123" y="107"/>
      <point x="1211" y="0"/>
      <point x="1357" y="0" type="curve"/>
      <point x="1357" y="90" type="line"/>
      <point x="1271" y="90"/>
      <point x="1213" y="151"/>
      <point x="1213" y="299" type="curve"/>
    </contour>
    <contour>
      <point x="1357" y="0" type="move" name="#entry"/>
    </contour>
    <contour>
      <point x="601" y="763" type="move" name="top"/>
    </contour>
  </outline>
</glyph>
<glyph name="behDotless-ar.init" format="1">
  <advance width="273"/>
  <outline>
    <contour>
      <point x="124" y="580" type="line"/>
      <point x="155" y="108"/>
      <point x="153" y="90"/>
      <point x="0" y="90" type="curve"/>
      <point x="0" y="0" type="line"/>
      <point x="281" y="0"/>
      <point x="241" y="182"/>
      <point x="214" y="586" type="curve"/>
    </contour>
    <contour>
      <point x="0" y="0" type="move" name="#exit"/>
    </contour>
    <contour>
      <point x="28" y="-250" type="move" name="_top"/>
    </contour>
    <contour>
      <point x="40" y="841" type="move" name="top"/>
    </contour>
  </outline>
</glyph>
<glyph name="behDotless-ar.medi" format="1">
  <advance width="558"/>
  <outline>
    <contour>
      <point x="247" y="545" type="line"/>
      <point x="247" y="77"/>
      <point x="247" y="90"/>
      <point x="0" y="90" type="curve"/>
      <point x="0" y="0" type="line"/>
      <point x="339" y="0"/>
      <point x="337" y="77"/>
      <point x="337" y="545" type="curve"/>
    </contour>
    <contour>
      <point x="558" y="90" type="line"/>
      <point x="404" y="90"/>
      <point x="337" y="207"/>
      <point x="337" y="492" type="curve"/>
      <point x="247" y="492" type="line"/>
      <point x="247" y="159"/>
      <point x="345" y="0"/>
      <point x="558" y="0" type="curve"/>
    </contour>
    <contour>
      <point x="558" y="0" type="move" name="#entry"/>
    </contour>
    <contour>
      <point x="0" y="0" type="move" name="#exit"/>
    </contour>
    <contour>
      <point x="108" y="822" type="move" name="top"/>
    </contour>
  </outline>
</glyph>
<glyph name="dotabove-ar" format="1">
  <advance width="600"/>
  <outline>
    <component base="one_dot"/>
    <contour>
      <point x="317" y="605" type="move" name="_top"/>
    </contour>
    <contour>
      <point x="317" y="731" type="move" name="top"/>
    </contour>
  </outline>
</glyph>
<glyph name="dotbelow-ar" format="1">
  <advance width="270"/>
  <outline>
    <component base="one_dot" xOffset="-155" yOffset="-934"/>
    <contour>
      <point x="162" y="-203" type="move" name="_bottom"/>
    </contour>
    <contour>
      <point x="162" y="-329" type="move" name="bottom"/>
    </contour>
    <contour>
      <point x="162" y="-329" type="move" name="top"/>
    </contour>
  </outline>
</glyph>
<glyph name="dotcenter-ar" format="1">
  <advance width="600"/>
  <outline>
    <component base="one_dot" xOffset="13" yOffset="-607"/>
    <contour>
      <point x="330" y="-2" type="move" name="_center"/>
    </contour>
    <contour>
      <point x="330" y="-64" type="move" name="bottom"/>
    </contour>
  </outline>
</glyph>
<glyph name="fehDotless-ar.fina" format="1">
  <advance width="1419"/>
  <outline>
    <contour>
      <point x="1419" y="90" type="line"/>
      <point x="1110" y="92"/>
      <point x="972" y="125"/>
      <point x="901" y="198" type="curve" smooth="yes"/>
      <point x="748" y="356"/>
      <point x="852" y="603"/>
      <point x="1070" y="603" type="curve" smooth="yes"/>
      <point x="1188" y="603"/>
      <point x="1282" y="493"/>
      <point x="1282" y="354" type="curve" smooth="yes"/>
      <point x="1282" y="180"/>
      <point x="1143" y="90"/>
      <point x="870" y="90" type="curve" smooth="yes"/>
      <point x="835" y="90"/>
      <point x="795" y="90"/>
      <point x="748" y="90" type="curve" smooth="yes"/>
      <point x="686" y="90"/>
      <point x="614" y="89"/>
      <point x="527" y="89" type="curve" smooth="yes"/>
      <point x="251" y="89"/>
      <point x="130" y="179"/>
      <point x="130" y="376" type="curve" smooth="yes"/>
      <point x="130" y="443"/>
      <point x="144" y="520"/>
      <point x="173" y="618" type="curve"/>
      <point x="87" y="644" type="line"/>
      <point x="55" y="539"/>
      <point x="40" y="451"/>
      <point x="40" y="376" type="curve" smooth="yes"/>
      <point x="40" y="125"/>
      <point x="204" y="-1"/>
      <point x="527" y="-1" type="curve" smooth="yes"/>
      <point x="678" y="-1"/>
      <point x="787" y="0"/>
      <point x="870" y="0" type="curve" smooth="yes"/>
      <point x="1192" y="0"/>
      <point x="1372" y="125"/>
      <point x="1372" y="354" type="curve" smooth="yes"/>
      <point x="1372" y="542"/>
      <point x="1239" y="693"/>
      <point x="1070" y="693" type="curve" smooth="yes"/>
      <point x="773" y="693"/>
      <point x="630" y="352"/>
      <point x="837" y="136" type="curve" smooth="yes"/>
      <point x="927" y="42"/>
      <point x="1084" y="2"/>
      <point x="1419" y="0" type="curve"/>
    </contour>
    <contour>
      <point x="1419" y="0" type="move" name="#entry"/>
    </contour>
    <contour>
      <point x="1070" y="920" type="move" name="top"/>
    </contour>
  </outline>
</glyph>
<glyph name="fehDotless-ar.init" format="1">
  <advance width="731"/>
  <outline>
    <contour>
      <point x="0" y="0" type="line"/>
      <point x="273" y="0" type="line" smooth="yes"/>
      <point x="470" y="0"/>
      <point x="691" y="-64"/>
      <point x="691" y="354" type="curve" smooth="yes"/>
      <point x="691" y="573"/>
      <point x="562" y="738"/>
      <point x="385" y="738" type="curve" smooth="yes"/>
      <point x="218" y="738"/>
      <point x="70" y="586"/>
      <point x="70" y="413" type="curve" smooth="yes"/>
      <point x="70" y="255"/>
      <point x="159" y="187"/>
      <point x="355" y="187" type="curve" smooth="yes"/>
      <point x="466" y="187"/>
      <point x="585" y="212"/>
      <point x="665" y="252" type="curve"/>
      <point x="625" y="332" type="line"/>
      <point x="556" y="298"/>
      <point x="454" y="277"/>
      <point x="355" y="277" type="curve" smooth="yes"/>
      <point x="206" y="277"/>
      <point x="160" y="311"/>
      <point x="160" y="413" type="curve" smooth="yes"/>
      <point x="160" y="536"/>
      <point x="267" y="648"/>
      <point x="385" y="648" type="curve" smooth="yes"/>
      <point x="509" y="648"/>
      <point x="601" y="524"/>
      <point x="601" y="354" type="curve" smooth="yes"/>
      <point x="601" y="36"/>
      <point x="474" y="90"/>
      <point x="273" y="90" type="curve" smooth="yes"/>
      <point x="0" y="90" type="line"/>
    </contour>
    <contour>
      <point x="0" y="0" type="move" name="#entry"/>
    </contour>
    <contour>
      <point x="367" y="840" type="move" name="top"/>
    </contour>
  </outline>
</glyph>
<glyph name="fehDotless-ar.medi" format="1">
  <advance width="724"/>
  <outline>
    <contour>
      <point x="724" y="90" type="line"/>
      <point x="356" y="90"/>
      <point x="174" y="113"/>
      <point x="174" y="349" type="curve" smooth="yes"/>
      <point x="174" y="522"/>
      <point x="267" y="650"/>
      <point x="388" y="650" type="curve" smooth="yes"/>
      <point x="495" y="650"/>
      <point x="590" y="505"/>
      <point x="590" y="333" type="curve" smooth="yes"/>
      <point x="590" y="184"/>
      <point x="494" y="90"/>
      <point x="220" y="90" type="curve" smooth="yes"/>
      <point x="157" y="90"/>
      <point x="126" y="90"/>
      <point x="0" y="90" type="curve"/>
      <point x="0" y="0" type="line"/>
      <point x="126" y="0"/>
      <point x="156" y="0"/>
      <point x="220" y="0" type="curve" smooth="yes"/>
      <point x="540" y="0"/>
      <point x="680" y="123"/>
      <point x="680" y="333" type="curve" smooth="yes"/>
      <point x="680" y="555"/>
      <point x="549" y="740"/>
      <point x="388" y="740" type="curve" smooth="yes"/>
      <point x="214" y="740"/>
      <point x="84" y="571"/>
      <point x="84" y="349" type="curve" smooth="yes"/>
      <point x="84" y="13"/>
      <point x="360" y="0"/>
      <point x="724" y="0" type="curve"/>
    </contour>
    <contour>
      <point x="724" y="0" type="move" name="#entry"/>
    </contour>
    <contour>
      <point x="0" y="0" type="move" name="#exit"/>
    </contour>
    <contour>
      <point x="376" y="944" type="move" name="top"/>
    </contour>
  </outline>
</glyph>
<glyph name="gafsarkashabove-ar" format="1">
  <advance width="696"/>
  <outline>
    <contour>
      <point x="87" y="674" type="curve"/>
      <point x="149" y="750"/>
      <point x="501" y="986"/>
      <point x="664" y="1086" type="curve"/>
      <point x="733" y="1132"/>
      <point x="678" y="1196"/>
      <point x="618" y="1162" type="curve" smooth="yes"/>
      <point x="453" y="1062"/>
      <point x="89" y="818"/>
      <point x="17" y="732" type="curve"/>
      <point x="-33" y="666"/>
      <point x="41" y="622"/>
    </contour>
    <contour>
      <point x="344" y="587" type="move" name="_top"/>
    </contour>
    <contour>
      <point x="320" y="1233" type="move" name="top"/>
    </contour>
  </outline>
</glyph>
<glyph name="hamzaaboveFatha-ar" format="1">
  <advance width="600"/>
  <outline>
    <component base="fatha-ar"/>
    <component base="hamza-ar" xOffset="138" yOffset="595"/>
    <contour>
      <point x="386" y="759" type="move" name="_top"/>
    </contour>
    <contour>
      <point x="386" y="1448" type="move" name="top"/>
    </contour>
  </outline>
</glyph>
<glyph name="hamzaaboveFathatan-ar" format="1">
  <advance width="600"/>
  <outline>
    <component base="fathatan-ar" yOffset="-953"/>
    <component base="hamza-ar" xOffset="33" yOffset="161"/>
    <contour>
      <point x="295" y="136" type="move" name="_top"/>
    </contour>
    <contour>
      <point x="295" y="1014" type="move" name="top"/>
    </contour>
  </outline>
</glyph>
<glyph name="hamzaaboveSukun-ar" format="1">
  <advance width="600"/>
  <outline>
    <component base="sukun-ar" xOffset="-75" yOffset="-533"/>
    <component base="hamza-ar" xOffset="48" yOffset="114"/>
    <contour>
      <point x="306" y="90" type="move" name="_top"/>
    </contour>
    <contour>
      <point x="306" y="967" type="move" name="top"/>
    </contour>
  </outline>
</glyph>
<glyph name="hamzabelowKasra-ar" format="1">
  <advance width="600"/>
  <outline>
    <component base="hamza-ar"/>
    <component base="kasra-ar" xOffset="-99" yOffset="1282"/>
    <contour>
      <point x="237" y="301" type="move" name="_top"/>
    </contour>
    <contour>
      <point x="224" y="1153" type="move" name="top"/>
    </contour>
  </outline>
</glyph>
<glyph name="hamzabelowKasratan-ar" format="1">
  <advance width="600"/>
  <outline>
    <component base="hamza-ar" yOffset="-14"/>
    <component base="kasratan-ar" xOffset="-78" yOffset="484"/>
    <contour>
      <point x="251" y="-96" type="move" name="_top"/>
    </contour>
    <contour>
      <point x="221" y="880" type="move" name="top"/>
    </contour>
  </outline>
</glyph>
<glyph name="one_dot" format="1">
  <advance width="600"/>
  <outline>
    <contour>
      <point x="317" y="605" type="curve" smooth="yes"/>
      <point x="348" y="605"/>
      <point x="380" y="636"/>
      <point x="380" y="668" type="curve" smooth="yes"/>
      <point x="380" y="703"/>
      <point x="348" y="731"/>
      <point x="317" y="731" type="curve" smooth="yes"/>
      <point x="281" y="731"/>
      <point x="254" y="703"/>
      <point x="254" y="668" type="curve" smooth="yes"/>
      <point x="254" y="636"/>
      <point x="281" y="605"/>
    </contour>
  </outline>
</glyph>
<glyph name="qafDotless-ar.fina" format="1">
  <advance width="913"/>
  <outline>
    <contour>
      <point x="913" y="90" type="line"/>
      <point x="652" y="90"/>
      <point x="467" y="80"/>
      <point x="387" y="181" type="curve" smooth="yes"/>
      <point x="292" y="301"/>
      <point x="399" y="495"/>
      <point x="558" y="495" type="curve" smooth="yes"/>
      <point x="834" y="495"/>
      <point x="858" y="-223"/>
      <point x="600" y="-360" type="curve" smooth="yes"/>
      <point x="311" y="-513"/>
      <point x="60" y="-302"/>
      <point x="117" y="48" type="curve"/>
      <point x="29" y="62" type="line"/>
      <point x="-40" y="-360"/>
      <point x="287" y="-629"/>
      <point x="642" y="-440" type="curve" smooth="yes"/>
      <point x="980" y="-260"/>
      <point x="941" y="585"/>
      <point x="558" y="585" type="curve" smooth="yes"/>
      <point x="324" y="585"/>
      <point x="176" y="304"/>
      <point x="317" y="125" type="curve" smooth="yes"/>
      <point x="425" y="-12"/>
      <point x="654" y="0"/>
      <point x="913" y="0" type="curve"/>
    </contour>
    <contour>
      <point x="913" y="0" type="move" name="#entry"/>
    </contour>
    <contour>
      <point x="534" y="839" type="move" name="top"/>
    </contour>
  </outline>
</glyph>
<glyph name="sad-01" format="1">
  <advance width="1908"/>
  <outline>
    <contour>
      <point x="991" y="2" type="line"/>
      <point x="1045" y="279"/>
      <point x="1347" y="546"/>
      <point x="1602" y="546" type="curve" smooth="yes"/>
      <point x="1709" y="546"/>
      <point x="1778" y="475"/>
      <point x="1778" y="362" type="curve" smooth="yes"/>
      <point x="1778" y="84"/>
      <point x="1572" y="90"/>
      <point x="1279" y="90" type="curve" smooth="yes"/>
      <point x="1164" y="90"/>
      <point x="998" y="90"/>
      <point x="952" y="90" type="curve" smooth="yes"/>
      <point x="923" y="90"/>
      <point x="916" y="94"/>
      <point x="898" y="176" type="curve"/>
      <point x="810" y="156" type="line"/>
      <point x="836" y="40"/>
      <point x="871" y="0"/>
      <point x="952" y="0" type="curve" smooth="yes"/>
      <point x="999" y="0"/>
      <point x="1164" y="0"/>
      <point x="1279" y="0" type="curve" smooth="yes"/>
      <point x="1570" y="0"/>
      <point x="1868" y="-8"/>
      <point x="1868" y="362" type="curve" smooth="yes"/>
      <point x="1868" y="524"/>
      <point x="1759" y="636"/>
      <point x="1602" y="636" type="curve" smooth="yes"/>
      <point x="1303" y="636"/>
      <point x="965" y="339"/>
      <point x="903" y="20" type="curve"/>
    </contour>
  </outline>
</glyph>
<glyph name="shaddaAlefabove-ar" format="1">
  <advance width="600"/>
  <outline>
    <component base="shadda-ar"/>
    <component base="alefabove-ar" xOffset="-78" yOffset="233"/>
    <contour>
      <point x="319" y="639" type="move" name="_top"/>
    </contour>
    <contour>
      <point x="319" y="1141" type="move" name="top"/>
    </contour>
  </outline>
</glyph>
<glyph name="shaddaDamma-ar" format="1">
  <advance width="600"/>
  <outline>
    <component base="shadda-ar"/>
    <component base="damma-ar" xOffset="19" yOffset="30"/>
    <contour>
      <point x="319" y="639" type="move" name="_top"/>
    </contour>
    <contour>
      <point x="319" y="1445" type="move" name="top"/>
    </contour>
  </outline>
</glyph>
<glyph name="shaddaDammatan-ar" format="1">
  <advance width="600"/>
  <outline>
    <component base="shadda-ar"/>
    <component base="dammatan-ar" xOffset="62" yOffset="428"/>
    <contour>
      <point x="310" y="639" type="move" name="_top"/>
    </contour>
    <contour>
      <point x="310" y="1387" type="move" name="top"/>
    </contour>
  </outline>
</glyph>
<glyph name="shaddaFatha-ar" format="1">
  <advance width="533"/>
  <outline>
    <component base="fatha-ar" xOffset="-153"/>
    <component base="shadda-ar" xOffset="-84" yOffset="398"/>
    <contour>
      <point x="266" y="759" type="move" name="_top"/>
    </contour>
    <contour>
      <point x="266" y="1222" type="move" name="top"/>
    </contour>
  </outline>
</glyph>
<glyph name="shaddaFathatan-ar" format="1">
  <advance width="600"/>
  <outline>
    <component base="shadda-ar"/>
    <component base="fathatan-ar" xOffset="17" yOffset="-121"/>
    <contour>
      <point x="319" y="639" type="move" name="_top"/>
    </contour>
    <contour>
      <point x="319" y="1303" type="move" name="top"/>
    </contour>
  </outline>
</glyph>
<glyph name="shaddaKasra-ar" format="1">
  <advance width="600"/>
  <outline>
    <component base="kasra-ar" yOffset="531"/>
    <component base="shadda-ar" xOffset="-2" yOffset="-251"/>
    <contour>
      <point x="348" y="129" type="move" name="_top"/>
    </contour>
    <contour>
      <point x="348" y="592" type="move" name="top"/>
    </contour>
  </outline>
</glyph>
<glyph name="shaddaKasratan-ar" format="1">
  <advance width="600"/>
  <outline>
    <component base="shadda-ar"/>
    <component base="kasratan-ar" xOffset="-26" yOffset="754"/>
    <contour>
      <point x="319" y="219" type="move" name="_top"/>
    </contour>
    <contour>
      <point x="319" y="877" type="move" name="top"/>
    </contour>
  </outline>
</glyph>
<glyph name="threedotsdownabove-ar" format="1">
  <advance width="600"/>
  <outline>
    <contour>
      <point x="290" y="868" type="move"/>
    </contour>
    <component base="_twodots" xOffset="25" yOffset="653"/>
    <component base="one_dot" xOffset="-11" yOffset="258"/>
    <contour>
      <point x="311" y="525" type="move" name="_top"/>
    </contour>
    <contour>
      <point x="314" y="1061" type="move" name="top"/>
    </contour>
  </outline>
</glyph>
<glyph name="threedotsdownbelow-ar" format="1">
  <advance width="600"/>
  <outline>
    <contour>
      <point x="338" y="-339" type="move"/>
    </contour>
    <component base="_twodots" xOffset="29" yOffset="352"/>
    <component base="one_dot" xOffset="-6" yOffset="-504"/>
    <contour>
      <point x="320" y="568" type="move" name="_bottom"/>
    </contour>
    <contour>
      <point x="298" y="0" type="move" name="top"/>
    </contour>
  </outline>
</glyph>
<glyph name="threedotsupabove-ar" format="1">
  <advance width="600"/>
  <outline>
    <contour>
      <point x="310" y="398" type="move"/>
    </contour>
    <component base="_twodots" xOffset="26" yOffset="845"/>
    <component base="one_dot" xOffset="-2" yOffset="496"/>
    <contour>
      <point x="310" y="712" type="move" name="_top"/>
    </contour>
    <contour>
      <point x="308" y="1273" type="move" name="top"/>
    </contour>
  </outline>
</glyph>
<glyph name="twodotshorizontalabove-ar" format="1">
  <advance width="600"/>
  <outline>
    <component base="_twodots" xOffset="74" yOffset="742"/>
    <contour>
      <point x="372" y="672" type="move" name="_top"/>
    </contour>
    <contour>
      <point x="390" y="852" type="move" name="top"/>
    </contour>
  </outline>
</glyph>
<glyph name="twodotshorizontalbelow-ar" format="1">
  <advance width="600"/>
  <outline>
    <component base="_twodots" yOffset="-463"/>
    <contour>
      <point x="292" y="-302" type="move" name="_bottom"/>
    </contour>
    <contour>
      <point x="294" y="-522" type="move" name="top"/>
    </contour>
  </outline>
</glyph>
<glyph name="twodotsverticalabove-ar" format="1">
  <advance width="600"/>
  <outline>
    <contour>
      <point x="324" y="595" type="line"/>
      <point x="328" y="664"/>
      <point x="325" y="877"/>
      <point x="323" y="902" type="curve"/>
      <point x="233" y="894" type="line"/>
      <point x="235" y="873"/>
      <point x="238" y="666"/>
      <point x="234" y="601" type="curve"/>
    </contour>
    <contour>
      <point x="294" y="565" type="move" name="_top"/>
    </contour>
    <contour>
      <point x="296" y="938" type="move" name="top"/>
    </contour>
  </outline>
</glyph>
<glyph name="twodotsverticalbelow-ar" format="1">
  <advance width="600"/>
  <outline>
    <contour>
      <point x="321" y="-481" type="line"/>
      <point x="316" y="-402"/>
      <point x="313" y="-243"/>
      <point x="312" y="-162" type="curve"/>
      <point x="222" y="-164" type="line"/>
      <point x="223" y="-245"/>
      <point x="226" y="-406"/>
      <point x="231" y="-487" type="curve"/>
    </contour>
    <contour>
      <point x="271" y="-109" type="move" name="_bottom"/>
    </contour>
    <contour>
      <point x="281" y="-517" type="move" name="top"/>
    </contour>
  </outline>
</glyph>
<glyph name="wasla-ar" format="1">
  <advance width="600"/>
  <outline>
    <contour>
      <point x="489" y="847" type="curve" smooth="yes"/>
      <point x="569" y="868"/>
      <point x="537" y="947"/>
      <point x="469" y="935" type="curve"/>
      <point x="411" y="921"/>
      <point x="343" y="920"/>
      <point x="318" y="930" type="curve" smooth="yes"/>
      <point x="250" y="959"/>
      <point x="150" y="956"/>
      <point x="64" y="924" type="curve"/>
      <point x="-12" y="889"/>
      <point x="30" y="817"/>
      <point x="96" y="840" type="curve" smooth="yes"/>
      <point x="160" y="862"/>
      <point x="236" y="867"/>
      <point x="282" y="848" type="curve" smooth="yes"/>
      <point x="326" y="829"/>
      <point x="413" y="829"/>
    </contour>
    <contour>
      <point x="271" y="809" type="move" name="_top"/>
    </contour>
    <contour>
      <point x="272" y="969" type="move" name="top"/>
    </contour>
  </outline>
</glyph>
